<?xml version="1.0" standalone="no"?>
<!DOCTYPE svg PUBLIC "-//W3C//DTD SVG 20010904//EN"
 "http://www.w3.org/TR/2001/REC-SVG-20010904/DTD/svg10.dtd">
<svg version="1.0" xmlns="http://www.w3.org/2000/svg"
 width="275.000000pt" height="183.000000pt" viewBox="0 0 275.000000 183.000000"
 preserveAspectRatio="xMidYMid meet">
<metadata>
Created by potrace 1.16, written by Peter Selinger 2001-2019
</metadata>
<g transform="translate(0.000000,183.000000) scale(0.100000,-0.100000)"
fill="#000000" stroke="none">
<path d="M0 1220 l0 -610 318 0 317 0 -3 305 -3 305 79 0 c73 0 80 2 85 22 4
14 0 26 -11 34 -9 8 -13 14 -8 14 5 0 3 7 -4 15 -7 9 -13 25 -14 38 -2 25 22
55 32 41 4 -5 13 -9 21 -9 8 0 16 -6 19 -14 3 -10 0 -12 -12 -8 -20 8 -21 -6
-1 -23 12 -10 15 -10 15 3 0 24 20 31 34 11 19 -25 36 -9 36 34 0 42 17 33 22
-13 2 -22 8 -30 23 -30 11 0 21 7 23 16 2 11 -3 16 -15 15 -10 0 -18 5 -18 13
0 28 22 21 46 -14 13 -19 29 -35 34 -35 20 0 35 24 35 54 0 20 3 27 10 20 6
-6 6 -21 1 -40 -7 -25 -6 -30 10 -31 10 -1 23 5 30 13 16 20 26 18 32 -8 5
-18 8 -19 21 -8 9 7 16 23 16 36 0 27 6 30 24 11 21 -21 3 -100 -25 -109 -9
-3 -9 -9 0 -26 10 -20 20 -22 86 -22 l75 0 0 -305 0 -305 710 0 710 0 0 610 0
610 -1375 0 -1375 0 0 -610z m990 424 c0 -8 5 -12 10 -9 6 3 10 1 10 -4 0 -6
-4 -11 -10 -11 -5 0 -10 -9 -10 -19 0 -19 16 -26 83 -36 75 -12 195 -64 203
-88 13 -41 -33 -125 -55 -101 -3 4 0 9 7 11 6 3 12 9 12 14 0 6 -4 7 -10 4
-13 -8 -13 -2 2 30 10 23 9 29 -14 50 l-26 24 -12 -45 c-7 -24 -17 -47 -21
-50 -5 -3 -6 -16 -3 -29 3 -13 0 -26 -7 -30 -9 -6 -11 -2 -7 13 3 12 3 21 -1
20 -34 -4 -38 24 -13 81 14 33 14 36 -8 53 -13 10 -38 18 -61 18 -28 0 -39 4
-39 15 0 10 -11 15 -37 16 -21 1 -30 3 -20 6 21 5 23 43 2 43 -8 0 -15 5 -15
10 0 6 7 10 16 10 8 0 12 5 9 10 -3 6 -1 10 4 10 6 0 11 -7 11 -16z m-44 -86
c4 -4 17 -5 29 -2 13 3 26 1 29 -5 11 -17 14 -121 5 -121 -5 0 -8 -6 -7 -12 2
-7 -8 -14 -21 -16 -18 -3 -22 0 -18 11 3 9 1 17 -5 19 -8 3 -11 25 -9 59 l2
55 -38 -4 c-78 -7 -103 -40 -68 -89 9 -13 11 -24 6 -28 -6 -3 -8 -12 -4 -20 9
-25 -23 -17 -41 10 -9 13 -18 39 -20 57 -3 18 -5 34 -5 36 -1 2 -8 -4 -17 -13
-9 -9 -22 -14 -28 -12 -14 6 -19 -32 -7 -48 13 -15 10 -64 -3 -59 -11 4 -38
57 -42 83 -2 8 3 20 11 27 16 16 121 64 155 70 13 3 26 7 28 8 5 6 61 1 68 -6z"/>
<path d="M640 931 c0 -153 5 -303 10 -332 22 -115 98 -216 198 -262 37 -17 66
-22 137 -22 78 0 97 4 141 27 77 41 149 125 174 205 17 55 20 93 20 251 0 102
-2 183 -4 181 -2 -2 -7 -53 -10 -114 -10 -199 -19 -305 -25 -305 -4 0 -12 5
-19 12 -9 9 -12 9 -12 -1 0 -11 -3 -11 -15 -1 -8 7 -15 19 -15 28 0 8 -3 12
-7 9 -8 -8 -43 42 -43 61 0 7 -9 23 -21 35 l-21 22 18 -45 c9 -25 23 -52 31
-61 9 -11 10 -18 3 -21 -6 -2 -5 -11 5 -26 12 -17 26 -22 58 -22 34 -1 39 -3
24 -11 -10 -6 -25 -8 -33 -5 -9 3 -12 1 -9 -4 3 -6 1 -10 -6 -10 -10 0 -10 -3
-1 -12 7 -7 12 -23 11 -38 0 -21 -3 -19 -19 17 -13 29 -30 47 -52 58 -32 14
-32 15 -5 11 23 -3 25 -1 15 11 -7 9 -21 12 -34 9 -13 -4 -26 -1 -29 4 -4 6
-10 8 -15 5 -19 -11 -17 50 2 76 11 15 23 48 25 73 l6 46 -57 0 -56 0 0 -86 0
-86 26 6 c22 6 24 5 15 -12 -11 -20 -2 -58 27 -120 8 -17 12 -35 9 -38 -3 -4
0 -19 8 -35 8 -15 15 -34 15 -42 0 -27 -133 -42 -212 -24 -51 11 -55 18 -33
57 21 36 18 50 -7 46 -16 -2 -23 -10 -23 -24 -1 -29 -20 -48 -31 -30 -5 7 -8
22 -9 33 0 11 -5 20 -12 20 -23 0 -27 16 -5 22 12 3 19 9 16 15 -3 5 0 15 6
24 10 11 16 12 27 3 8 -7 12 -18 9 -25 -8 -20 37 -26 49 -6 15 26 27 73 28
110 0 27 4 31 19 26 16 -5 18 2 18 80 l0 86 -55 0 c-52 0 -55 -1 -55 -25 0
-34 29 -102 45 -109 11 -4 12 -11 3 -36 -5 -17 -13 -29 -16 -26 -3 3 -11 1
-19 -5 -9 -9 -13 -8 -13 0 0 8 -10 6 -30 -4 -39 -20 -38 -26 3 -20 25 4 28 3
12 -4 -11 -5 -28 -12 -38 -15 -9 -3 -20 -19 -23 -35 -4 -16 -12 -32 -20 -35
-17 -6 -18 8 -3 37 9 18 9 20 -2 10 -16 -15 -39 -17 -39 -3 0 6 8 10 18 11 12
0 10 3 -8 12 -24 11 -24 11 15 15 37 3 60 21 60 47 0 6 10 31 23 57 12 26 22
58 21 70 -1 22 -1 22 -8 3 -16 -47 -43 -97 -59 -113 -10 -10 -22 -27 -25 -36
-6 -14 -10 -16 -21 -7 -10 8 -16 9 -21 1 -14 -23 -21 -7 -21 48 0 31 -6 122
-13 202 -16 163 -10 238 22 302 21 42 69 80 83 66 4 -4 1 -21 -6 -38 -10 -24
-10 -37 -1 -57 16 -36 81 -113 95 -113 16 0 58 66 54 86 -2 10 -20 22 -43 30
-26 8 -33 12 -18 13 12 1 24 5 27 10 7 11 -22 23 -35 15 -11 -6 -39 13 -39 27
0 5 14 16 30 24 28 15 35 14 85 -2 48 -16 72 -33 46 -33 -5 0 -1 -20 8 -45
l16 -46 8 33 c5 18 9 42 9 54 0 31 81 59 126 43 18 -6 32 -16 32 -22 0 -20
-17 -40 -28 -33 -6 3 -21 2 -34 -3 -24 -9 -18 -15 27 -24 13 -3 5 -7 -22 -12
-60 -11 -64 -48 -9 -100 l21 -20 -53 -3 -52 -3 0 -64 0 -63 55 -4 55 -3 0 71
c0 69 1 72 46 129 46 60 48 70 29 133 -10 31 15 29 54 -3 29 -25 56 -87 64
-150 2 -16 5 21 6 83 l1 112 -340 0 -340 0 0 -279z"/>
</g>
</svg>
