<?xml version="1.0" standalone="no"?>
<!DOCTYPE svg PUBLIC "-//W3C//DTD SVG 20010904//EN"
 "http://www.w3.org/TR/2001/REC-SVG-20010904/DTD/svg10.dtd">
<svg version="1.0" xmlns="http://www.w3.org/2000/svg"
 width="800.000000pt" height="743.000000pt" viewBox="0 0 800.000000 743.000000"
 preserveAspectRatio="xMidYMid meet">
<metadata>
Created by potrace 1.16, written by Peter Selinger 2001-2019
</metadata>
<g transform="translate(0.000000,743.000000) scale(0.100000,-0.100000)"
fill="#000000" stroke="none">
<path d="M2391 7210 c-196 -129 -346 -330 -422 -567 l-23 -73 -53 0 -53 0 0
38 c0 20 4 74 10 119 6 53 6 115 -1 170 -10 91 -46 233 -59 233 -18 0 -115
-132 -151 -206 -93 -191 -90 -371 13 -664 22 -63 43 -131 47 -150 l6 -35 14
45 c11 37 46 128 134 341 7 18 59 57 166 124 211 133 318 238 384 375 40 81
64 156 91 283 4 15 2 27 -3 27 -5 0 -50 -27 -100 -60z"/>
<path d="M2275 6474 c-206 -120 -368 -301 -466 -519 l-34 -75 -41 0 -42 0 -23
-90 -24 -90 -51 0 -51 0 -6 143 c-10 260 -76 460 -200 602 l-35 40 -16 -55
c-29 -104 -39 -191 -33 -309 9 -205 76 -403 194 -577 33 -49 67 -107 74 -129
l13 -40 13 80 c8 43 22 93 33 110 37 60 104 112 188 148 282 121 445 279 543
523 22 57 69 245 69 278 0 15 -31 3 -105 -40z"/>
<path d="M3415 6098 c-79 -10 -203 -40 -187 -46 6 -2 12 -10 12 -17 0 -10 17
-6 63 15 56 27 71 30 167 30 58 0 132 -7 165 -15 33 -8 93 -14 133 -15 l72 0
0 28 0 27 -183 0 c-100 1 -209 -3 -242 -7z"/>
<path d="M2192 5705 c-105 -50 -187 -109 -273 -194 -111 -111 -193 -243 -256
-410 -26 -68 -65 -222 -59 -229 10 -9 153 61 228 111 156 105 273 239 352 408
57 120 115 349 89 349 -5 0 -41 -16 -81 -35z"/>
<path d="M1055 5614 c-17 -221 26 -448 119 -633 52 -105 109 -185 196 -276 43
-44 87 -98 98 -120 l21 -40 1 127 c0 126 0 126 28 147 l27 20 -27 1 c-27 0
-28 2 -28 55 l0 55 -34 0 -33 0 -17 88 c-35 175 -119 391 -202 512 -46 69
-123 160 -134 160 -4 0 -11 -43 -15 -96z"/>
<path d="M2195 5017 c-209 -148 -411 -427 -489 -676 -27 -86 -45 -201 -31
-201 18 0 146 100 224 175 130 124 208 237 266 380 34 86 67 243 63 301 l-3
43 -30 -22z"/>
<path d="M5367 4863 c-4 -21 -11 -69 -16 -108 -6 -38 -15 -79 -20 -90 -5 -11
-12 -40 -14 -65 -3 -25 -8 -53 -12 -62 -5 -14 -2 -18 14 -18 19 0 21 -6 22
-72 l0 -73 15 40 c42 115 70 381 48 463 -10 35 -31 26 -37 -15z"/>
<path d="M965 4689 c21 -128 96 -321 165 -430 23 -35 30 -57 30 -97 l0 -52
-51 0 c-37 0 -77 11 -147 40 -54 23 -90 34 -82 27 8 -8 105 -86 215 -174 206
-164 453 -371 538 -450 43 -40 53 -58 85 -151 20 -59 38 -99 40 -89 3 15 13
17 60 15 l57 -3 3 -42 c2 -29 8 -43 18 -43 10 0 14 13 14 50 0 44 6 60 48 120
l47 70 63 -2 c52 -3 60 -1 45 10 -9 6 -20 12 -25 12 -4 0 -8 24 -8 54 0 62 50
186 75 186 11 0 15 13 15 53 0 28 7 87 15 130 16 86 20 247 6 247 -16 0 -148
-170 -197 -255 l-49 -84 -50 -1 c-31 0 -96 14 -170 38 l-120 38 0 67 0 67 -37
0 c-31 0 -38 4 -38 20 0 17 -7 20 -50 20 -33 0 -50 4 -50 13 0 25 -112 243
-167 326 -57 84 -208 247 -272 291 l-33 23 7 -44z"/>
<path d="M7320 4225 c-63 -18 -146 -38 -185 -45 -38 -6 -78 -16 -88 -21 -9 -5
-70 -21 -135 -35 -345 -74 -434 -100 -512 -149 -22 -14 -49 -25 -60 -25 -11 0
-20 -4 -20 -10 0 -5 -21 -29 -46 -52 -56 -51 -126 -148 -155 -212 -11 -26 -26
-77 -33 -114 l-12 -67 -989 -527 c-932 -498 -991 -528 -1039 -528 -49 0 -89
21 -819 427 -576 321 -769 432 -772 448 -2 11 -9 54 -15 95 -14 87 -61 235
-74 235 -5 0 -32 -41 -60 -92 l-51 -92 -50 -1 -50 -1 28 -17 c35 -22 36 -63 1
-197 -35 -138 -42 -281 -19 -405 10 -52 20 -125 22 -162 l5 -67 -41 -3 -42 -3
60 -89 c54 -78 61 -94 61 -137 l0 -49 -50 0 c-49 0 -54 3 -153 86 -117 99
-212 168 -311 226 -75 44 -255 122 -263 114 -3 -2 10 -26 28 -53 229 -337 432
-475 865 -589 77 -20 148 -41 159 -47 11 -6 -14 28 -56 74 -42 46 -107 122
-144 169 l-67 85 5 95 c5 91 7 100 65 220 33 69 64 137 67 153 7 25 11 27 61
27 l54 0 0 -42 c0 -23 -5 -70 -11 -105 -21 -119 29 -330 120 -512 32 -62 41
-92 41 -131 l0 -50 -42 0 -42 0 62 -63 c60 -61 62 -64 62 -115 l0 -52 -49 0
c-34 0 -70 10 -122 34 -156 72 -383 119 -549 114 l-95 -3 86 -57 c113 -76 245
-138 402 -189 l127 -42 0 -51 -1 -51 -180 -95 c-99 -52 -175 -96 -169 -98 5
-2 57 21 114 52 62 34 116 56 135 56 19 0 48 12 73 30 29 21 53 30 80 30 35 0
38 2 38 28 0 20 8 32 29 45 26 15 48 17 183 11 84 -3 168 -10 187 -15 19 -5
36 -7 38 -5 2 2 -17 18 -41 37 -43 32 -45 36 -46 85 0 27 5 55 12 62 7 7 38
12 73 12 l60 -1 38 -55 c30 -45 37 -64 37 -104 0 -48 0 -49 -35 -52 l-34 -3
92 -66 c51 -37 93 -66 94 -65 1 1 -4 24 -12 51 -8 26 -15 77 -15 112 l0 63 53
0 c42 0 58 -5 73 -21 43 -48 50 -49 461 -52 347 -3 398 -6 479 -24 49 -11 109
-30 131 -41 43 -23 93 -74 93 -98 0 -8 3 -14 6 -14 4 0 61 44 127 98 66 53
129 104 141 114 18 15 19 19 6 43 -19 35 -93 89 -160 115 -175 69 -427 74
-779 14 -80 -13 -171 -24 -204 -24 l-60 0 6 75 c5 73 5 76 -25 105 -16 17 -34
30 -39 30 -5 0 -9 24 -9 53 l0 52 231 123 c217 115 233 122 287 122 56 0 65
-4 522 -261 256 -144 467 -265 468 -270 2 -5 12 -9 23 -9 10 0 104 -48 209
-107 161 -91 190 -111 190 -130 0 -14 7 -26 18 -29 9 -2 38 -16 65 -29 26 -14
59 -25 75 -25 33 0 112 -40 112 -57 0 -7 7 -13 16 -13 9 0 43 -16 76 -36 35
-20 68 -32 77 -29 11 4 -4 17 -49 42 -36 20 -67 40 -70 44 -3 4 -14 9 -26 10
-36 7 -664 361 -664 375 0 8 -8 14 -17 14 -10 0 -217 111 -460 246 l-443 246
0 56 0 57 920 488 c506 268 931 487 944 487 13 0 26 7 30 15 8 23 100 19 166
-6 153 -59 388 13 550 167 47 45 86 74 99 74 13 0 21 6 21 18 0 17 398 429
499 516 29 25 49 45 45 45 -5 -1 -61 -16 -124 -34z m-4067 -1385 l686 -385 0
-50 1 -50 -306 -162 c-283 -151 -309 -163 -357 -163 l-53 0 -13 63 c-37 180
-126 347 -279 526 l-29 34 -6 -24 c-46 -191 -27 -405 54 -603 20 -49 29 -88
29 -126 0 -54 -1 -56 -40 -77 -28 -17 -55 -23 -97 -23 -56 0 -61 2 -98 40
l-40 41 -3 104 c-2 58 3 167 12 243 28 248 16 434 -40 601 -28 82 -72 171 -86
171 -4 0 -20 -22 -36 -50 l-27 -50 -54 0 -53 0 5 68 c2 37 10 101 17 142 22
134 14 121 74 118 48 -3 105 -33 739 -388z"/>
<path d="M4032 4149 c-26 -42 -88 -61 -203 -62 l-109 -2 8 -35 c4 -19 7 -71 7
-115 l0 -80 -37 -3 c-21 -2 -38 -6 -38 -10 1 -4 7 -34 15 -67 16 -67 20 -297
6 -357 l-9 -37 42 -3 c40 -3 41 -4 63 -63 12 -33 22 -80 22 -104 1 -37 4 -42
19 -36 50 19 142 27 275 23 l147 -5 0 31 c1 17 11 63 24 101 l23 70 57 3 c31
2 56 6 56 10 0 4 1 105 3 225 l2 217 -32 0 c-41 0 -46 17 -42 139 l4 89 -85 6
c-115 9 -154 21 -183 55 -22 27 -24 28 -35 10z"/>
<path d="M1046 3703 c59 -276 227 -524 467 -694 90 -64 215 -127 331 -168 48
-17 101 -40 117 -52 l28 -20 -35 63 c-99 174 -114 213 -114 293 l0 75 -30 0
c-28 0 -30 -3 -30 -35 l0 -35 -52 0 -53 1 -53 73 c-72 99 -213 249 -320 338
-85 72 -244 188 -256 188 -4 0 -4 -12 0 -27z"/>
</g>
</svg>
